<svg
  xmlns="http://www.w3.org/2000/svg"
  xmlns:xlink="http://www.w3.org/1999/xlink"
  width="30px" height="31px">
<defs>
<filter filterUnits="userSpaceOnUse" id="Filter_0" x="0px" y="0px" width="30px" height="31px"  >
    <feOffset in="SourceAlpha" dx="0" dy="1" />
    <feGaussianBlur result="blurOut" stdDeviation="0" />
    <feFlood flood-color="rgb(255, 255, 255)" result="floodOut" />
    <feComposite operator="atop" in="floodOut" in2="blurOut" />
    <feComponentTransfer><feFuncA type="linear" slope="0.88"/></feComponentTransfer>
    <feMerge>
    <feMergeNode/>
    <feMergeNode in="SourceGraphic"/>
  </feMerge>
</filter>

</defs>
<g filter="url(#Filter_0)">
<path fill-rule="evenodd"  fill="rgb(242, 1, 1)"
  d="M27.889,7.558 C23.780,0.439 14.676,-2.000 7.558,2.111 C0.439,6.220 -2.000,15.323 2.111,22.442 C6.220,29.560 15.323,32.000 22.441,27.889 C29.560,23.779 32.000,14.676 27.889,7.558 ZM20.953,25.311 C15.259,28.600 7.976,26.648 4.689,20.953 C1.400,15.259 3.352,7.976 9.046,4.689 C14.741,1.400 22.023,3.351 25.311,9.047 C28.599,14.741 26.648,22.023 20.953,25.311 ZM20.358,14.395 L12.564,9.850 C11.854,9.435 11.281,9.767 11.285,10.588 L11.325,19.610 C11.329,20.432 11.909,20.766 12.621,20.355 L20.356,15.889 C21.066,15.479 21.068,14.810 20.358,14.395 Z"/>
</g>
</svg>
