<svg
  xmlns="http://www.w3.org/2000/svg"
  xmlns:xlink="http://www.w3.org/1999/xlink"
  width="15px" height="14px">
  <path fill-rule="evenodd"  fill="rgb(225, 225, 225)"
  d="M14.832,7.804 C14.746,7.874 14.645,7.914 14.527,7.914 C14.395,7.914 14.293,7.874 14.223,7.804 L7.506,1.031 L0.773,7.741 C0.605,7.909 0.336,7.921 0.180,7.741 C-0.000,7.586 0.011,7.316 0.180,7.148 L7.201,0.133 C7.287,0.048 7.389,-0.000 7.506,-0.000 C7.607,-0.000 7.709,0.047 7.795,0.133 L10.591,2.943 L10.591,1.475 C10.591,1.234 10.778,1.047 11.005,1.047 C11.247,1.047 11.442,1.234 11.442,1.475 L11.442,3.794 L14.832,7.195 C15.000,7.365 14.988,7.648 14.832,7.804 ZM2.499,7.070 C2.742,7.070 2.929,7.258 2.929,7.484 L2.929,13.156 L5.967,13.156 L5.967,10.760 C5.967,10.536 6.162,10.339 6.405,10.339 L8.607,10.339 C8.834,10.339 9.021,10.536 9.021,10.760 L9.021,13.156 L12.067,13.156 L12.067,7.290 C12.067,7.047 12.255,6.860 12.497,6.860 C12.723,6.860 12.911,7.047 12.911,7.290 L12.911,13.585 C12.911,13.812 12.723,14.000 12.497,14.000 L8.607,14.000 C8.365,14.000 8.177,13.812 8.177,13.585 L8.177,11.190 L6.818,11.190 L6.818,13.585 C6.818,13.812 6.631,14.000 6.405,14.000 L2.499,14.000 C2.273,14.000 2.085,13.812 2.085,13.585 L2.085,7.484 C2.085,7.258 2.273,7.070 2.499,7.070 Z"/>
</svg>
