<svg
  xmlns="http://www.w3.org/2000/svg"
  xmlns:xlink="http://www.w3.org/1999/xlink"
  width="45px" height="61px">
<path fill-rule="evenodd"  fill="rgb(44, 136, 206)"
  d="M22.475,-0.000 C10.051,-0.000 0.000,10.227 0.000,22.869 C0.000,29.447 3.232,35.408 6.414,40.906 C10.303,47.741 14.950,54.114 20.354,59.767 C21.515,61.000 23.434,61.000 24.646,59.767 C29.394,54.987 33.586,49.591 37.121,43.836 C40.909,37.617 45.000,30.423 45.000,22.869 C44.950,10.278 34.899,-0.000 22.475,-0.000 ZM22.475,36.127 C14.950,36.127 8.838,29.909 8.838,22.252 C8.838,14.595 14.950,8.377 22.475,8.377 C30.000,8.377 36.111,14.543 36.111,22.252 C36.111,29.960 30.000,36.127 22.475,36.127 Z"/>
</svg>
