<svg
  xmlns="http://www.w3.org/2000/svg"
  xmlns:xlink="http://www.w3.org/1999/xlink"
  width="34px" height="36px">
<path fill-rule="evenodd"  fill="rgb(189, 11, 19)"
  d="M33.634,2.821 L31.981,9.879 C31.946,10.036 31.804,10.145 31.643,10.145 L22.255,10.145 C22.144,10.145 22.050,10.098 21.983,10.014 C21.916,9.930 21.892,9.828 21.916,9.725 L24.144,0.266 C24.179,0.107 24.317,-0.000 24.479,-0.000 L31.461,-0.000 C33.024,-0.000 34.000,1.270 33.634,2.821 ZM30.450,15.873 C30.521,15.958 30.540,16.057 30.517,16.165 L28.911,23.077 C28.549,24.624 26.899,25.868 25.341,25.868 L18.649,25.878 C18.539,25.878 18.445,25.831 18.378,25.747 C18.307,25.663 18.287,25.561 18.311,25.456 L20.507,15.999 C20.543,15.840 20.684,15.731 20.846,15.731 L30.182,15.745 C30.288,15.745 30.383,15.789 30.450,15.873 ZM15.630,10.147 L6.290,10.145 C6.058,10.145 5.908,9.930 5.955,9.725 L7.534,2.837 C7.888,1.281 9.439,-0.000 10.997,-0.000 L17.779,-0.000 C18.004,-0.000 18.173,0.239 18.130,0.436 L15.965,9.881 C15.929,10.040 15.792,10.147 15.630,10.147 ZM14.461,15.873 C14.528,15.960 14.552,16.061 14.528,16.165 L10.737,32.713 C10.328,34.519 8.459,36.000 6.644,36.000 L0.362,36.000 C0.252,36.000 0.157,35.955 0.090,35.871 C0.023,35.785 -0.000,35.685 0.023,35.580 L4.515,16.011 C4.550,15.854 4.688,15.747 4.849,15.747 L14.190,15.747 C14.300,15.747 14.394,15.789 14.461,15.873 Z"/>
</svg>
