<svg
  xmlns="http://www.w3.org/2000/svg"
  xmlns:xlink="http://www.w3.org/1999/xlink"
  width="19px" height="21px">
<path fill-rule="evenodd"  fill="rgb(44, 137, 207)"
  d="M16.515,21.000 L2.485,21.000 C1.115,21.000 -0.000,19.902 -0.000,18.551 L-0.000,4.723 C-0.000,3.373 1.115,2.274 2.485,2.274 L3.304,2.274 L3.304,1.584 C3.304,0.710 4.004,0.000 4.865,0.000 C5.726,0.000 6.426,0.710 6.426,1.584 L6.426,2.274 L8.028,2.274 L8.028,1.584 C8.028,0.710 8.728,0.000 9.589,0.000 C10.450,0.000 11.150,0.710 11.150,1.584 L11.150,2.274 L12.752,2.274 L12.752,1.584 C12.752,0.710 13.451,0.000 14.313,0.000 C15.174,0.000 15.874,0.710 15.874,1.584 L15.874,2.275 L16.515,2.275 C17.886,2.275 19.000,3.374 19.000,4.723 L19.000,18.551 C19.000,19.902 17.886,21.000 16.515,21.000 ZM5.549,1.584 C5.549,1.188 5.242,0.864 4.865,0.864 C4.488,0.864 4.181,1.188 4.181,1.584 L4.181,4.405 C4.181,4.802 4.488,5.126 4.865,5.126 C5.242,5.126 5.549,4.802 5.549,4.405 L5.549,1.584 ZM10.273,1.584 C10.273,1.188 9.966,0.864 9.589,0.864 C9.212,0.864 8.905,1.188 8.905,1.584 L8.905,4.405 C8.905,4.802 9.212,5.126 9.589,5.126 C9.966,5.126 10.273,4.802 10.273,4.405 L10.273,1.584 ZM14.997,1.584 C14.997,1.188 14.690,0.864 14.313,0.864 C13.936,0.864 13.629,1.188 13.629,1.584 L13.629,4.405 C13.629,4.802 13.936,5.126 14.313,5.126 C14.690,5.126 14.997,4.802 14.997,4.405 L14.997,1.584 ZM17.538,5.876 L1.462,5.876 L1.462,18.552 C1.462,19.108 1.921,19.561 2.485,19.561 L16.515,19.561 C17.079,19.561 17.538,19.108 17.538,18.552 L17.538,5.876 ZM13.536,14.716 L16.223,14.716 L16.223,17.070 L13.536,17.070 L13.536,14.716 ZM13.536,11.572 L16.223,11.572 L16.223,13.926 L13.536,13.926 L13.536,11.572 ZM13.536,8.427 L16.223,8.427 L16.223,10.783 L13.536,10.783 L13.536,8.427 ZM9.951,14.716 L12.637,14.716 L12.637,17.070 L9.951,17.070 L9.951,14.716 ZM9.951,11.572 L12.637,11.572 L12.637,13.926 L9.951,13.926 L9.951,11.572 ZM9.951,8.427 L12.637,8.427 L12.637,10.783 L9.951,10.783 L9.951,8.427 ZM6.363,14.716 L9.050,14.716 L9.050,17.070 L6.363,17.070 L6.363,14.716 ZM6.363,11.572 L9.050,11.572 L9.050,13.926 L6.363,13.926 L6.363,11.572 ZM6.363,8.427 L9.050,8.427 L9.050,10.783 L6.363,10.783 L6.363,8.427 ZM2.777,14.716 L5.463,14.716 L5.463,17.070 L2.777,17.070 L2.777,14.716 ZM2.777,11.572 L5.463,11.572 L5.463,13.926 L2.777,13.926 L2.777,11.572 ZM2.777,8.427 L5.463,8.427 L5.463,10.783 L2.777,10.783 L2.777,8.427 Z"/>
</svg>
